<svg t="1696832340787" class="icon" viewBox="0 0 1024 1024" version="1.1" xmlns="http://www.w3.org/2000/svg" p-id="1513" width="200" height="200"><path d="M512.4 516m-258 0a258 258 0 1 0 516 0 258 258 0 1 0-516 0Z" fill="#FFFFFF" p-id="1514"></path><path d="M512.4 274c32.7 0 64.4 6.4 94.2 19 28.8 12.2 54.7 29.6 76.9 51.9 22.2 22.2 39.7 48.1 51.9 76.9 12.6 29.8 19 61.5 19 94.2s-6.4 64.4-19 94.2c-12.2 28.8-29.6 54.7-51.9 76.9-22.2 22.2-48.1 39.7-76.9 51.9-29.8 12.6-61.5 19-94.2 19s-64.4-6.4-94.2-19c-28.8-12.2-54.7-29.6-76.9-51.9-22.2-22.2-39.7-48.1-51.9-76.9-12.6-29.8-19-61.5-19-94.2s6.4-64.4 19-94.2c12.2-28.8 29.6-54.7 51.9-76.9 22.2-22.2 48.1-39.7 76.9-51.9 29.8-12.6 61.5-19 94.2-19m0-16c-142.5 0-258 115.5-258 258s115.5 258 258 258 258-115.5 258-258-115.5-258-258-258z" fill="" p-id="1515"></path><path d="M770.4 516c0 20.7-2.4 40.8-7 60-189.8 0-251 147.9-251 147.9S449.8 576 261.4 576c-4.6-19.3-7-39.4-7-60 0-142.5 115.5-258 258-258s258 115.5 258 258z" fill="#F7931E" p-id="1516"></path><path d="M512.4 274c32.7 0 64.4 6.4 94.2 19 28.8 12.2 54.7 29.6 76.9 51.9 22.2 22.2 39.7 48.1 51.9 76.9 12.6 29.8 19 61.5 19 94.2 0 14.9-1.4 29.7-4 44.3-40.5 1.4-78.3 9.5-112.6 24.2-30.4 13-58.1 31.2-82.1 53.9-20 18.9-34.1 37.9-43.4 52.5-9.4-14.6-23.7-33.6-43.8-52.5-24.1-22.8-51.8-40.9-82.1-53.9-34.1-14.6-71.7-22.7-112-24.2-2.7-14.5-4-29.4-4-44.3 0-32.7 6.4-64.4 19-94.2 12.2-28.8 29.6-54.7 51.9-76.9 22.2-22.2 48.1-39.7 76.9-51.9 29.8-12.6 61.5-19 94.2-19m0-16c-142.5 0-258 115.5-258 258 0 20.7 2.4 40.8 7 60 188.3 0 251 147.9 251 147.9S573.6 576 763.4 576c4.6-19.3 7-39.4 7-60 0-142.5-115.5-258-258-258z" fill="" p-id="1517"></path><path d="M416.3 429.2m-18 0a18 18 0 1 0 36 0 18 18 0 1 0-36 0Z" fill="" p-id="1518"></path><path d="M608.4 429.2m-18 0a18 18 0 1 0 36 0 18 18 0 1 0-36 0Z" fill="" p-id="1519"></path><path d="M512.4 708m-24 0a24 24 0 1 0 48 0 24 24 0 1 0-48 0Z" fill="" p-id="1520"></path><path d="M512.4 684c-13.3 0-24 10.7-24 24s10.7 24 24 24 24-10.7 24-24-10.8-24-24-24z" fill="" p-id="1521"></path><path d="M277.9 408c-44.1-53.6-53.8-154.5-21.4-213.4 39 6.9 106.8 39.8 158.5 82.4-60.5 24.6-109.7 71.7-137.1 131z" fill="#EE762B" p-id="1522"></path><path d="M256.6 194.6c39 6.9 106.8 39.8 158.5 82.4-60.7 24.7-109.8 71.8-137.2 131-44.1-53.7-53.8-154.5-21.3-213.4m0-16c-5.8 0-11.2 3.1-14 8.3-8.8 16-15 34.8-18.3 55.8-3.2 19.9-3.7 40.8-1.6 62.1 2.1 21.4 6.7 41.9 13.8 61 7.5 20.3 17.3 37.9 29.2 52.3 3.1 3.7 7.6 5.8 12.4 5.8 13.7-44.3 94.7-127.3 153-144.6 0.8-5.6-1.3-11.2-5.6-14.8-25.4-20.9-55.5-40.4-87-56.5-29.7-15.1-57.8-25.5-79-29.3-1.1 0-2-0.1-2.9-0.1z" fill="" p-id="1523"></path><path d="M746.7 408c44.1-53.6 53.8-154.5 21.4-213.4-39 6.9-106.8 39.8-158.5 82.4 60.6 24.6 109.8 71.7 137.1 131z" fill="#EE762B" p-id="1524"></path><path d="M768.1 194.6c32.4 58.9 22.8 159.7-21.4 213.4-27.4-59.2-76.5-106.3-137.2-131 51.8-42.7 119.6-75.5 158.6-82.4m0-16c-0.9 0-1.9 0.1-2.8 0.2-21.2 3.8-49.2 14.2-79 29.3-31.5 16-61.5 35.5-87 56.5-4.4 3.6-6.5 9.2-5.6 14.8 91.3 31.6 144.6 119 150.9 144.5 0.7 0.1 11.3-2 14.4-5.7 11.9-14.4 21.7-32 29.2-52.3 7-19.1 11.7-39.6 13.8-61 2.1-21.3 1.6-42.2-1.6-62.1-3.4-21.1-9.5-39.9-18.3-55.8-2.8-5.3-8.2-8.4-14-8.4z" fill="" p-id="1525"></path></svg>